<svg width="698" height="888" viewBox="0 0 698 888" fill="none" xmlns="http://www.w3.org/2000/svg">
<path d="M411.231 609.882C410.569 607.185 410.833 598.631 409.772 594.033C408.712 589.438 410.036 561.7 411.097 553.775C412.157 545.848 414.812 514.311 415.34 507.02C415.872 499.728 415.476 481.182 416.138 476.592C416.8 471.994 417.993 468.191 419.984 464.542C421.974 460.9 427.943 445.208 432.451 434.111C436.958 423.02 434.173 404.315 434.173 399.877C434.173 395.439 435.5 394.808 438.021 391.95C440.54 389.097 447.04 383.075 451.947 380.065C456.855 377.055 465.343 367.544 468.394 364.377C471.443 361.205 474.23 358.192 479.667 355.344C485.104 352.487 494.52 338.54 496.775 336.167C499.03 333.788 509.64 319.841 512.557 316.355C515.475 312.863 517.731 312.706 517.731 312.706C520.914 314.768 526.221 315.082 529.402 315.56C532.587 316.031 538.422 318.257 538.422 318.257C544.523 319.68 543.198 315.56 543.198 315.56C544.124 315.877 546.514 315.56 546.514 315.56L548.769 318.257C552.613 320.155 551.687 317.308 551.687 317.308C551.687 315.56 543.991 304.78 543.991 304.78C545.053 303.988 553.406 303.831 553.406 303.831C558.182 301.135 545.584 300.032 545.584 300.032C545.981 298.602 539.216 301.135 537.228 301.613C535.238 302.083 527.412 303.514 518.926 302.244C510.438 300.982 506.191 309.064 501.553 313.981C496.91 318.892 492.266 322.534 483.911 326.972C475.558 331.409 471.445 337.905 469.455 339.967C467.467 342.029 464.149 348.053 461.762 349.955C459.377 351.853 453.538 357.561 451.02 359.305C448.503 361.053 442.003 364.534 435.501 366.757C429.004 368.972 421.443 376.738 420.383 377.055C419.321 377.376 416.271 377.055 414.546 376.421C412.822 375.785 411.231 371.035 409.24 365.647C407.252 360.254 408.315 356.773 409.639 351.7C410.967 346.627 417.863 346.949 417.863 346.949C421.576 345.358 419.987 340.92 419.987 340.92C419.454 340.289 419.987 337.752 419.987 337.752C420.914 336.482 419.72 334.421 419.72 334.421C420.648 333.154 419.055 331.096 419.055 331.096C418.261 330.458 418.261 327.928 418.261 327.928C422.106 322.852 414.943 321.429 413.885 320.476C412.822 319.524 411.364 315.725 411.364 315.725C411.364 313.503 409.903 310.813 409.903 310.813C396.378 289.728 375.154 308.587 375.154 308.587C367.199 305.577 366.801 316.513 366.801 316.513C362.29 318.097 361.494 324.282 361.494 324.282C359.638 339.657 372.502 339.81 372.502 339.81C373.298 350.115 386.428 357.881 386.428 357.881C388.42 359.465 387.488 365.012 387.356 367.23C387.223 369.449 384.968 370.084 384.968 370.084C371.178 365.326 360.168 368.653 360.168 368.653C358.31 368.971 354.601 368.817 354.601 368.817C347.043 367.39 344.788 365.326 337.755 360.895C330.726 356.454 315.473 354.235 312.155 353.757C308.841 353.283 295.712 351.538 291.601 350.429C287.488 349.327 278.733 347.896 278.733 347.896C274.621 347.583 267.993 347.262 261.494 346.787C254.994 346.312 251.943 348.053 249.423 348.845C246.903 349.64 242.26 350.59 242.26 350.59C236.691 352.176 241.067 355.98 241.067 355.98C236.292 359.465 245.048 358.351 245.048 358.351C247.167 357.246 249.688 356.297 249.688 356.297C251.943 355.344 262.687 355.822 262.687 355.822C267.993 355.348 264.942 360.096 264.942 360.096C262.421 360.578 258.972 362.315 258.972 362.315C251.546 368.339 263.482 365.332 267.593 364.855C271.706 364.377 276.746 360.26 276.746 360.26C282.185 355.348 292.397 362.004 292.397 362.004L312.955 372.938C321.18 377.536 335.77 379.915 335.77 379.915C341.737 380.229 345.186 383.396 345.186 383.396C348.765 385.461 368.261 392.906 368.261 392.906C377.281 395.443 375.027 404.795 375.027 404.795C374.497 408.598 377.014 427.458 377.28 433.165C377.549 438.873 379.535 442.04 369.189 441.566C358.843 441.087 355.663 449.171 353.009 450.277C350.359 451.389 346.907 450.918 344.386 448.543C341.868 446.16 338.023 447.27 334.043 446.798C330.063 446.317 322.237 444.419 320.117 443.938C317.994 443.467 311.495 438.873 308.312 437.128C305.131 435.38 298.897 436.493 296.11 436.493C293.322 436.493 289.611 435.544 287.222 433.8C284.837 432.055 274.358 425.556 270.513 423.494C267.619 421.944 267.802 423.979 268.071 425.085C267.267 424.454 265.429 423.246 261.494 420.962C251.944 415.411 224.621 410.021 218.919 409.386C213.215 408.755 201.545 405.423 197.034 403.051C192.523 400.672 187.618 400.041 184.7 397.661C181.779 395.286 181.382 393.22 172.63 386.564C163.876 379.908 153.267 375.47 153.267 375.47C142.921 372.937 142.921 382.604 142.921 382.604C140.535 388.629 159.631 405.27 159.631 405.27C164.009 407.168 177.14 416.838 177.14 416.838C182.842 420.484 191.464 418.422 191.464 418.422C203.401 419.535 223.695 436.015 223.695 436.015C232.184 445.839 251.945 448.218 251.945 448.218C254.996 448.218 261.627 451.707 261.627 451.707C261.627 451.707 262.554 456.302 264.013 461.213C265.471 466.13 266.003 471.045 266.136 472.946C266.268 474.847 267.725 480.233 268.788 483.879C269.849 487.524 269.053 487.21 268.788 490.378C268.522 493.549 272.634 503.377 274.889 506.224C277.144 509.08 276.88 509.238 278.337 511.614C279.797 513.989 282.849 516.055 284.302 517.325C285.764 518.588 286.958 519.697 288.152 521.601C289.347 523.503 290.009 526.039 292.794 530.637C295.577 535.235 295.843 534.754 299.691 540.461C303.538 546.168 304.334 549.971 303.006 554.887C301.68 559.802 303.273 559.321 305.39 561.699C307.514 564.078 308.179 563.601 308.046 565.662C307.911 567.721 308.973 572.95 309.77 573.903C310.565 574.852 311.625 575.487 312.556 577.074C313.483 578.657 313.086 579.771 314.411 582.143C315.738 584.522 317.861 584.837 319.85 586.267C321.839 587.693 321.572 589.117 323.431 591.339C325.286 593.558 328.87 593.558 330.99 595.456C333.11 597.361 333.379 599.893 336.03 601.002C338.683 602.112 340.408 601.324 343.326 604.337C346.242 607.348 345.581 608.615 347.435 609.085C349.294 609.563 353.141 614.475 353.141 614.475C352.08 617.964 353.537 644.114 354.068 652.512C354.599 660.916 369.585 694.832 371.839 700.536C374.093 706.24 378.338 709.098 373.166 716.702C367.993 724.312 376.086 733.033 379.664 735.245C383.246 737.46 383.644 750.152 383.246 755.381C382.848 760.611 383.644 765.523 385.5 771.854C387.359 778.204 392.663 774.558 392.663 774.558C396.508 772.496 399.427 759.023 399.957 753.155C400.489 747.294 399.694 737.153 398.631 730.654C397.571 724.158 390.938 705.612 386.428 698.795C381.919 691.979 378.341 644.432 378.341 644.432C378.341 642.688 383.114 644.907 383.114 644.907C391.866 652.516 396.511 641.261 397.571 637.772C398.633 634.284 400.489 635.4 406.192 637.141C411.894 638.881 413.618 640.626 414.679 636.823C415.741 633.021 423.169 632.86 423.169 632.86C423.169 632.86 421.047 628.584 419.056 625.095C417.067 621.615 411.894 612.579 411.231 609.882Z" fill="url(#paint0_linear_2450_9181)"/>
<ellipse cx="348.6" cy="831.6" rx="348.6" ry="56" fill="url(#paint1_radial_2450_9181)"/>
<path d="M4.19922 877.1L333.657 66.0765C343.236 42.4972 376.759 42.8912 385.78 66.6891L692.999 877.1H4.19922Z" fill="url(#paint2_linear_2450_9181)"/>
<ellipse cx="359.102" cy="59.8496" rx="24.5" ry="15.75" fill="url(#paint3_radial_2450_9181)"/>
<defs>
<linearGradient id="paint0_linear_2450_9181" x1="348.601" y1="299.6" x2="388.241" y2="775.6" gradientUnits="userSpaceOnUse">
<stop stop-color="#FECB13"/>
<stop offset="1" stop-color="#A3A3A3"/>
</linearGradient>
<radialGradient id="paint1_radial_2450_9181" cx="0" cy="0" r="1" gradientUnits="userSpaceOnUse" gradientTransform="translate(348.6 831.6) scale(348.6 56)">
<stop stop-color="#FFD500"/>
<stop offset="0.802885" stop-color="#737373" stop-opacity="0"/>
</radialGradient>
<linearGradient id="paint2_linear_2450_9181" x1="363.999" y1="61.6" x2="356.47" y2="811.777" gradientUnits="userSpaceOnUse">
<stop offset="0.360577" stop-color="#FFE077" stop-opacity="0.5"/>
<stop offset="0.873448" stop-color="white" stop-opacity="0"/>
</linearGradient>
<radialGradient id="paint3_radial_2450_9181" cx="0" cy="0" r="1" gradientUnits="userSpaceOnUse" gradientTransform="translate(359.102 59.8496) rotate(90) scale(15.75 24.5)">
<stop stop-color="white"/>
<stop offset="1" stop-color="#FFE868"/>
</radialGradient>
</defs>
</svg>
